Coordinates
version=1
nRows=38
nColumns=12
inDegrees=yes

Units are S.I. units (second, meters, Newtons, ...)
Angles are in degrees

endheader
time	SC_y	SC_z	SC_x	AC_y	AC_z	AC_x	GH_y	GH_z	GH_yy	EL_x	PS_y
       0.0              -47.32          25.68          81.61          58.91          -17.4         -9.125         -65.25          14.82          137.4          14.28          133.4
    0.0435              -47.32          25.68           81.6          58.91          -17.4         -9.126         -65.24          14.83          137.3          14.29          133.4
     0.087              -47.32          25.68          81.59           58.9          -17.4         -9.128         -65.22          14.84          137.3          14.29          133.4
    0.1305              -47.32          25.68          81.59           58.9          -17.4         -9.129         -65.21          14.85          137.3           14.3          133.4
     0.174              -47.32          25.67          81.58          58.89          -17.4         -9.131         -65.19          14.86          137.2          14.31          133.4
    0.2175              -47.32          25.67          81.57          58.89          -17.4         -9.132         -65.17          14.88          137.2          14.32          133.4
     0.261              -47.32          25.67          81.56          58.88          -17.4         -9.134         -65.15          14.89          137.2          14.33          133.4
    0.3045              -47.32          25.66          81.55          58.88         -17.39         -9.136         -65.13           14.9          137.1          14.34          133.4
     0.348              -47.33          25.66          81.54          58.87         -17.39         -9.137         -65.11          14.92          137.1          14.35          133.4
    0.3915              -47.33          25.65          81.52          58.87         -17.39          -9.14         -65.09          14.94          137.0          14.37          133.4
     0.435              -47.33          25.65          81.51          58.86         -17.39         -9.142         -65.06          14.95          137.0          14.38          133.5
    0.4785              -47.33          25.64           81.5          58.85         -17.39         -9.144         -65.04          14.97          136.9          14.39          133.5
     0.522              -47.33          25.64          81.48          58.84         -17.39         -9.147         -65.01          14.99          136.9          14.41          133.5
    0.5655              -47.33          25.63          81.47          58.83         -17.39         -9.149         -64.98          15.02          136.8          14.43          133.5
     0.609              -47.33          25.62          81.45          58.83         -17.39         -9.152         -64.94          15.04          136.7          14.45          133.5
    0.6525              -47.33          25.62          81.43          58.82         -17.38         -9.156         -64.91          15.07          136.6          14.47          133.5
     0.696              -47.33          25.61          81.41           58.8         -17.38         -9.159         -64.87           15.1          136.5          14.49          133.5
    0.7395              -47.33           25.6          81.39          58.79         -17.38         -9.163         -64.82          15.13          136.5          14.51          133.5
     0.783              -47.33          25.59          81.36          58.78         -17.38         -9.167         -64.78          15.16          136.4          14.54          133.5
    0.8265              -47.33          25.58          81.33          58.77         -17.37         -9.172         -64.72           15.2          136.2          14.57          133.5
      0.87              -47.33          25.57           81.3          58.75         -17.37         -9.177         -64.67          15.24          136.1           14.6          133.5
    0.9135              -47.33          25.56          81.27          58.73         -17.37         -9.182          -64.6          15.28          136.0          14.63          133.5
     0.957              -47.33          25.54          81.23          58.71         -17.36         -9.188         -64.53          15.33          135.8          14.67          133.6
       1.0              -47.33          25.53          81.19          58.69         -17.36         -9.195         -64.46          15.39          135.7          14.71          133.6
     1.044              -47.33          25.51          81.15          58.67         -17.36         -9.203         -64.37          15.45          135.5          14.76          133.6
     1.087              -47.33          25.49           81.1          58.64         -17.35         -9.211         -64.28          15.52          135.3          14.81          133.6
     1.131              -47.33          25.47          81.04          58.61         -17.35         -9.221         -64.17           15.6          135.1          14.87          133.6
     1.174              -47.33          25.45          80.98          58.58         -17.34         -9.231         -64.05          15.68          134.8          14.93          133.6
     1.218              -47.33          25.42          80.91          58.54         -17.33         -9.243         -63.91          15.78          134.5          15.01          133.7
     1.261              -47.33          25.39          80.83           58.5         -17.33         -9.257         -63.76          15.89          134.2          15.09          133.7
     1.305              -47.33          25.36          80.74          58.45         -17.32         -9.272         -63.58          16.02          133.8          15.19          133.7
     1.348              -47.33          25.32          80.63           58.4         -17.31          -9.29         -63.38          16.16          133.4           15.3          133.8
     1.392              -47.33          25.27          80.51          58.34          -17.3         -9.311         -63.14          16.33          132.9          15.42          133.8
     1.435              -47.33          25.22          80.37          58.26         -17.28         -9.335         -62.87          16.53          132.3          15.57          133.9
     1.479              -47.33          25.16           80.2          58.18         -17.27         -9.363         -62.56          16.75          131.6          15.74          133.9
     1.522              -47.33          25.09          80.01          58.07         -17.25         -9.396         -62.18          17.02          130.8          15.95          134.0
     1.566              -47.33           25.0          79.78          57.95         -17.23         -9.435         -61.74          17.34          129.9          16.19          134.1
     1.609              -47.34          24.89           79.5          57.81          -17.2         -9.482          -61.2          17.72          128.8          16.48          134.2
